<?xml version="1.0" encoding="UTF-8" standalone="no"?>
<!-- Created with Inkscape (http://www.inkscape.org/) -->

<svg
   xmlns:dc="http://purl.org/dc/elements/1.1/"
   xmlns:cc="http://creativecommons.org/ns#"
   xmlns:rdf="http://www.w3.org/1999/02/22-rdf-syntax-ns#"
   xmlns:svg="http://www.w3.org/2000/svg"
   xmlns="http://www.w3.org/2000/svg"
   xmlns:xlink="http://www.w3.org/1999/xlink"
   xmlns:sodipodi="http://sodipodi.sourceforge.net/DTD/sodipodi-0.dtd"
   xmlns:inkscape="http://www.inkscape.org/namespaces/inkscape"
   width="900"
   height="900"
   id="svg3916"
   version="1.1"
   inkscape:version="0.92.4 (5da689c313, 2019-01-14)"
   sodipodi:docname="icon.svg"
   inkscape:export-filename="C:\Users\Jonny\repos\flutter\vlc_remote\assets\icon-512.png"
   inkscape:export-xdpi="54.613335"
   inkscape:export-ydpi="54.613335">
  <defs
     id="defs3918">
    <linearGradient
       id="linearGradient1526">
      <stop
         id="stop1522"
         offset="0"
         style="stop-color:#ff8800;stop-opacity:1" />
      <stop
         id="stop1524"
         offset="1"
         style="stop-color:#f46e00;stop-opacity:1" />
    </linearGradient>
    <linearGradient
       id="linearGradient1503">
      <stop
         id="stop1499"
         offset="0"
         style="stop-color:#ff8800;stop-opacity:1" />
      <stop
         id="stop1501"
         offset="1"
         style="stop-color:#f46e00;stop-opacity:1" />
    </linearGradient>
    <inkscape:perspective
       sodipodi:type="inkscape:persp3d"
       inkscape:vp_x="0 : 526.18109 : 1"
       inkscape:vp_y="0 : 1000 : 0"
       inkscape:vp_z="744.09448 : 526.18109 : 1"
       inkscape:persp3d-origin="372.04724 : 350.78739 : 1"
       id="perspective3924" />
    <inkscape:perspective
       id="perspective3852"
       inkscape:persp3d-origin="0.5 : 0.33333333 : 1"
       inkscape:vp_z="1 : 0.5 : 1"
       inkscape:vp_y="0 : 1000 : 0"
       inkscape:vp_x="0 : 0.5 : 1"
       sodipodi:type="inkscape:persp3d" />
    <linearGradient
       inkscape:collect="always"
       xlink:href="#linearGradient3649"
       id="linearGradient3826"
       gradientUnits="userSpaceOnUse"
       gradientTransform="matrix(1,0,0,1.0202334,0,-1.4234613)"
       x1="40.775471"
       y1="100.34167"
       x2="44.375881"
       y2="125.31633" />
    <linearGradient
       id="linearGradient3649">
      <stop
         style="stop-color:#e26400;stop-opacity:1;"
         offset="0"
         id="stop3651" />
      <stop
         style="stop-color:#ffb900;stop-opacity:1;"
         offset="1"
         id="stop3653" />
    </linearGradient>
    <linearGradient
       inkscape:collect="always"
       xlink:href="#linearGradient3668"
       id="linearGradient3828"
       gradientUnits="userSpaceOnUse"
       x1="64.751183"
       y1="102.28447"
       x2="93.522026"
       y2="108.98846" />
    <linearGradient
       id="linearGradient3668">
      <stop
         id="stop3670"
         offset="0"
         style="stop-color:#9b4400;stop-opacity:1;" />
      <stop
         id="stop3672"
         offset="1"
         style="stop-color:#e56300;stop-opacity:1;" />
    </linearGradient>
    <linearGradient
       inkscape:collect="always"
       xlink:href="#linearGradient3646"
       id="linearGradient3830"
       gradientUnits="userSpaceOnUse"
       x1="115.20164"
       y1="70.105232"
       x2="261.62219"
       y2="55.356419" />
    <linearGradient
       id="linearGradient3646">
      <stop
         style="stop-color:#f48200;stop-opacity:0;"
         offset="0"
         id="stop3648" />
      <stop
         id="stop3654"
         offset="0.58887613"
         style="stop-color:#f48200;stop-opacity:0.72784811;" />
      <stop
         style="stop-color:#cc5f00;stop-opacity:1;"
         offset="0.81621653"
         id="stop3658" />
      <stop
         style="stop-color:#a43d00;stop-opacity:1;"
         offset="1"
         id="stop3650" />
    </linearGradient>
    <linearGradient
       inkscape:collect="always"
       xlink:href="#linearGradient3626"
       id="linearGradient3832"
       gradientUnits="userSpaceOnUse"
       x1="44.103722"
       y1="228.59993"
       x2="278.4324"
       y2="290.6998" />
    <linearGradient
       id="linearGradient3626">
      <stop
         id="stop3628"
         offset="0"
         style="stop-color:#a1abb2;stop-opacity:1;" />
      <stop
         style="stop-color:#eaeced;stop-opacity:1;"
         offset="0.08297831"
         id="stop3630" />
      <stop
         id="stop3632"
         offset="1"
         style="stop-color:#c6ccd0;stop-opacity:1;" />
    </linearGradient>
    <linearGradient
       inkscape:collect="always"
       xlink:href="#linearGradient3702"
       id="linearGradient3834"
       gradientUnits="userSpaceOnUse"
       x1="18.875"
       y1="252.48438"
       x2="334.03125"
       y2="268.41544" />
    <linearGradient
       id="linearGradient3702">
      <stop
         style="stop-color:#7a8288;stop-opacity:1;"
         offset="0"
         id="stop3704" />
      <stop
         id="stop3710"
         offset="0.5288403"
         style="stop-color:#9fa3a7;stop-opacity:1;" />
      <stop
         style="stop-color:#7d858b;stop-opacity:1;"
         offset="1"
         id="stop3706" />
    </linearGradient>
    <linearGradient
       inkscape:collect="always"
       xlink:href="#linearGradient3712"
       id="linearGradient3836"
       gradientUnits="userSpaceOnUse"
       x1="104.88638"
       y1="12.640625"
       x2="164.75943"
       y2="27.389442" />
    <linearGradient
       id="linearGradient3712">
      <stop
         style="stop-color:#a1abb2;stop-opacity:1;"
         offset="0"
         id="stop3714" />
      <stop
         id="stop3720"
         offset="0.14824273"
         style="stop-color:#eaeced;stop-opacity:1;" />
      <stop
         style="stop-color:#c6ccd0;stop-opacity:1;"
         offset="1"
         id="stop3716" />
    </linearGradient>
    <linearGradient
       inkscape:collect="always"
       xlink:href="#linearGradient3634"
       id="linearGradient3838"
       gradientUnits="userSpaceOnUse"
       gradientTransform="matrix(0.28222223,0,0,0.28222223,-0.13983991,-0.01181449)"
       x1="107.20918"
       y1="-0.64152896"
       x2="151.34604"
       y2="12.703197" />
    <linearGradient
       id="linearGradient3634">
      <stop
         id="stop3636"
         offset="0"
         style="stop-color:#7a8288;stop-opacity:1;" />
      <stop
         style="stop-color:#9fa3a7;stop-opacity:1;"
         offset="0.07633271"
         id="stop3638" />
      <stop
         id="stop3640"
         offset="1"
         style="stop-color:#7d858b;stop-opacity:1;" />
    </linearGradient>
    <linearGradient
       inkscape:collect="always"
       xlink:href="#linearGradient3675"
       id="linearGradient3840"
       gradientUnits="userSpaceOnUse"
       x1="-113.89329"
       y1="461.92139"
       x2="412.23013"
       y2="463.26218" />
    <linearGradient
       id="linearGradient3675">
      <stop
         style="stop-color:#ffb900;stop-opacity:1;"
         offset="0"
         id="stop3677" />
      <stop
         style="stop-color:#ffd76b;stop-opacity:1;"
         offset="1"
         id="stop3679" />
    </linearGradient>
    <linearGradient
       id="linearGradient3689">
      <stop
         style="stop-color:#f68000;stop-opacity:1;"
         offset="0"
         id="stop3691" />
      <stop
         style="stop-color:#fd9800;stop-opacity:1;"
         offset="1"
         id="stop3693" />
    </linearGradient>
    <linearGradient
       inkscape:collect="always"
       xlink:href="#linearGradient1526"
       id="linearGradient4957"
       x1="146.68591"
       y1="106.42471"
       x2="416.63025"
       y2="106.42471"
       gradientUnits="userSpaceOnUse"
       gradientTransform="matrix(0.94926819,0,0,0.88681742,235.26451,-31.911554)" />
    <linearGradient
       inkscape:collect="always"
       xlink:href="#linearGradient1526"
       id="linearGradient4965"
       x1="96.066322"
       y1="39.014259"
       x2="467.23129"
       y2="39.014259"
       gradientUnits="userSpaceOnUse"
       gradientTransform="matrix(0.94926819,0,0,0.88681742,235.26451,-31.911554)" />
    <clipPath
       clipPathUnits="userSpaceOnUse"
       id="clipPath4813">
      <path
         id="path4815"
         d="m 256,24 c -10,0 -16.56131,4.44436 -22,10 -7.51989,7.68159 -14,30 -14,30 l -84,252 h -34 c -10.63636,0 -20.71454,9.30699 -24,20 L 43,456 c -4.67669,16.03434 -3,31.99999 19,32 h 194 194 c 22,-10e-6 23.67669,-15.96566 19,-32 L 434,336 c -3.28546,-10.69301 -13.36364,-20 -24,-20 H 376 L 292,64 c 0,0 -6.48011,-22.31841 -14,-30 -5.43869,-5.55564 -12,-10 -22,-10 z"
         style="fill:#ff8800"
         inkscape:connector-curvature="0" />
    </clipPath>
    <linearGradient
       inkscape:collect="always"
       xlink:href="#linearGradient1526"
       id="linearGradient1536"
       x1="429.07596"
       y1="166.5961"
       x2="576.18451"
       y2="166.5961"
       gradientUnits="userSpaceOnUse"
       gradientTransform="matrix(1.0829306,0,0,1.0829306,-41.682979,-32.200807)" />
    <linearGradient
       inkscape:collect="always"
       xlink:href="#linearGradient1503"
       id="linearGradient4679"
       gradientUnits="userSpaceOnUse"
       x1="151"
       y1="796.36218"
       x2="361"
       y2="796.36218" />
    <linearGradient
       inkscape:collect="always"
       xlink:href="#linearGradient1503"
       id="linearGradient4681"
       gradientUnits="userSpaceOnUse"
       x1="151"
       y1="796.36218"
       x2="361"
       y2="796.36218" />
    <linearGradient
       inkscape:collect="always"
       xlink:href="#linearGradient1503"
       id="linearGradient4683"
       gradientUnits="userSpaceOnUse"
       x1="151"
       y1="796.36218"
       x2="361"
       y2="796.36218" />
    <linearGradient
       inkscape:collect="always"
       xlink:href="#linearGradient1503"
       id="linearGradient4685"
       gradientUnits="userSpaceOnUse"
       x1="151"
       y1="796.36218"
       x2="361"
       y2="796.36218" />
    <linearGradient
       inkscape:collect="always"
       xlink:href="#linearGradient1503"
       id="linearGradient4687"
       gradientUnits="userSpaceOnUse"
       x1="151"
       y1="796.36218"
       x2="361"
       y2="796.36218" />
    <linearGradient
       inkscape:collect="always"
       xlink:href="#linearGradient1503"
       id="linearGradient4689"
       gradientUnits="userSpaceOnUse"
       x1="151"
       y1="796.36218"
       x2="361"
       y2="796.36218" />
    <linearGradient
       inkscape:collect="always"
       xlink:href="#linearGradient1503"
       id="linearGradient4691"
       gradientUnits="userSpaceOnUse"
       x1="151"
       y1="796.36218"
       x2="361"
       y2="796.36218" />
    <linearGradient
       inkscape:collect="always"
       xlink:href="#linearGradient1503"
       id="linearGradient4693"
       gradientUnits="userSpaceOnUse"
       x1="151"
       y1="796.36218"
       x2="361"
       y2="796.36218" />
  </defs>
  <sodipodi:namedview
     id="base"
     pagecolor="#ffffff"
     bordercolor="#666666"
     borderopacity="1.0"
     inkscape:pageopacity="0.0"
     inkscape:pageshadow="2"
     inkscape:zoom="1.3885006"
     inkscape:cx="433.36546"
     inkscape:cy="678.18521"
     inkscape:document-units="px"
     inkscape:current-layer="layer1"
     showgrid="true"
     inkscape:window-width="1920"
     inkscape:window-height="1017"
     inkscape:window-x="-8"
     inkscape:window-y="-8"
     inkscape:window-maximized="1"
     inkscape:pagecheckerboard="true"
     inkscape:snap-global="false">
    <inkscape:grid
       type="xygrid"
       id="grid1538" />
  </sodipodi:namedview>
  <metadata
     id="metadata3921">
    <rdf:RDF>
      <cc:Work
         rdf:about="">
        <dc:format>image/svg+xml</dc:format>
        <dc:type
           rdf:resource="http://purl.org/dc/dcmitype/StillImage" />
        <dc:title></dc:title>
      </cc:Work>
    </rdf:RDF>
  </metadata>
  <g
     inkscape:groupmode="layer"
     id="layer3"
     inkscape:label="Ebene 3">
    <path
       style="fill:#fafafa;fill-opacity:1;fill-rule:nonzero;stroke:none;stroke-width:7.78295279;stroke-linecap:butt;stroke-linejoin:round;stroke-miterlimit:4;stroke-dasharray:none;stroke-dashoffset:0;stroke-opacity:1;paint-order:normal"
       d="m 304.514,798.10805 c -0.37711,-0.37793 -0.68567,-113.31896 -0.68567,-250.98009 V 296.83502 h 146.05006 146.05006 v 250.9801 250.98009 H 450.56408 c -79.95042,0 -145.67295,-0.30923 -146.05008,-0.68716 z"
       id="path4722"
       inkscape:connector-curvature="0" />
  </g>
  <g
     inkscape:groupmode="layer"
     id="layer2"
     inkscape:label="Ebene 2">
    <rect
       style="fill:#f1f1f1;fill-opacity:1;fill-rule:nonzero;stroke:none;stroke-width:8.24151039;stroke-linecap:butt;stroke-linejoin:round;stroke-miterlimit:4;stroke-dasharray:none;stroke-dashoffset:0;stroke-opacity:1;paint-order:normal"
       id="rect4836"
       width="290.83066"
       height="64.458023"
       x="304.95593"
       y="732.55316" />
  </g>
  <g
     inkscape:label="Ebene 1"
     inkscape:groupmode="layer"
     id="layer1"
     transform="translate(-52.624777,49.245903)">
    <path
       inkscape:connector-curvature="0"
       id="path4589"
       style="fill:url(#linearGradient1536);fill-opacity:1;stroke-width:5.67221069"
       d="m 504.88798,96.410403 a 120.98572,113.02627 0 0 0 -81.91146,27.933017 l 23.18661,24.75294 a 85.774509,80.131548 0 0 1 112.92956,0 l 23.19218,-24.75294 A 120.98572,113.02627 0 0 0 504.88798,96.410403 Z m 18.18628,89.656897 c -0.33121,0.0175 -0.66238,0.0352 -0.99377,0.0451 -0.73579,0.48346 -0.81341,0.78635 0.77314,0.16455 z m -13.13587,12.50897 c -0.51187,0.25991 -1.0669,0.53106 -1.51476,0.72921 -0.22437,0.17964 -0.45166,0.35508 -0.67857,0.53174 -0.0194,0.22473 0.20849,0.27397 0.82133,0.0451 z" />
    <path
       style="fill:url(#linearGradient4957);fill-opacity:1;stroke-width:5.67221069"
       inkscape:connector-curvature="0"
       data-name="layer1"
       d="m 374.50878,72.566339 23.20419,24.747791 a 159.40116,148.91441 0 0 1 209.85295,0.01105 l 23.19245,-24.75329 a 194.61823,181.81463 0 0 0 -256.24959,-0.0053 z"
       id="path4591" />
    <path
       style="fill:url(#linearGradient4965);fill-opacity:1;stroke-width:5.67221069"
       inkscape:connector-curvature="0"
       data-name="layer1"
       d="M 502.63063,-40.596997 A 267.40567,249.8135 0 0 0 326.45721,21.217672 l 23.18658,24.75328 a 232.4116,217.12163 0 0 1 305.96196,-0.0055 L 678.79232,21.206706 A 267.41154,249.81899 0 0 0 502.63063,-40.596997 Z"
       id="path4593" />
    <g
       transform="matrix(1.5263158,0,0,1.5263158,154.62477,-773.95662)"
       id="g4345"
       style="fill:url(#linearGradient4693);fill-opacity:1;stroke:none">
      <g
         style="font-style:normal;font-variant:normal;font-weight:normal;font-stretch:normal;font-size:550px;line-height:125%;font-family:Ubuntu;-inkscape-font-specification:Ubuntu;text-align:start;letter-spacing:0px;word-spacing:0px;writing-mode:lr-tb;text-anchor:start;fill:url(#linearGradient4691);fill-opacity:1;stroke:none"
         id="text2994">
        <g
           transform="translate(0,15.24359)"
           id="g3830"
           style="fill:url(#linearGradient4685);fill-opacity:1;stroke:none">
          <g
             id="g3838"
             style="fill:url(#linearGradient4683);fill-opacity:1;stroke:none">
            <g
               id="g3785"
               style="fill:url(#linearGradient4681);fill-opacity:1;stroke:none">
              <path
                 style="color:#000000;font-style:normal;font-variant:normal;font-weight:normal;font-stretch:normal;font-size:medium;line-height:125%;font-family:Ubuntu;-inkscape-font-specification:Ubuntu;text-indent:0;text-align:start;text-decoration:none;text-decoration-line:none;letter-spacing:0;word-spacing:0;text-transform:none;writing-mode:lr-tb;direction:ltr;baseline-shift:baseline;text-anchor:start;display:inline;overflow:visible;visibility:visible;fill:url(#linearGradient4679);fill-opacity:1;fill-rule:nonzero;stroke:none;stroke-width:60;marker:none;enable-background:accumulate"
                 id="rect3010"
                 d="m 153,606.1186 c -7.85377,7.9e-4 -15.6653,3.22779 -21.21875,8.78125 -5.55346,5.55345 -8.78046,13.36498 -8.78125,21.21875 v 370 c 7.9e-4,7.8538 3.22779,15.6653 8.78125,21.2188 5.55345,5.5535 13.36498,8.7804 21.21875,8.7812 h 150 c 7.85377,-8e-4 15.6653,-3.2277 21.21875,-8.7812 5.55346,-5.5535 8.78046,-13.365 8.78125,-21.2188 v -370 c -7.9e-4,-7.85377 -3.22779,-15.6653 -8.78125,-21.21875 C 318.6653,609.34639 310.85377,606.11939 303,606.1186 Z m 59.28125,20 a 5.0062461,5.0062461 0 0 1 0.21875,0 5.0005,5.0005 0 0 1 0.5,0 h 30 a 5.0005,5.0005 0 1 1 0,10 h -30 a 5.0128984,5.0128984 0 0 1 -0.71875,-10 z m -79.28125,30 h 190 v 325 H 133 Z m 95,335 c 8.28427,0 15,6.71573 15,15 0,8.2843 -6.71573,15 -15,15 -8.28427,0 -15,-6.7157 -15,-15 0,-8.28427 6.71573,-15 15,-15 z"
                 inkscape:connector-curvature="0" />
            </g>
          </g>
        </g>
        <g
           transform="translate(539.77941,-13.359245)"
           id="layer1-4"
           style="fill:url(#linearGradient4689);fill-opacity:1;stroke:none">
          <g
             transform="translate(-573.14286,170.28574)"
             id="layer1-5"
             style="fill:url(#linearGradient4687);fill-opacity:1;stroke:none" />
        </g>
      </g>
    </g>
    <path
       style="fill:#fafafa;fill-opacity:1;fill-rule:nonzero;stroke:none;stroke-width:0.68050522;stroke-linecap:butt;stroke-linejoin:round;stroke-miterlimit:4;stroke-dasharray:none;stroke-dashoffset:0;stroke-opacity:1;paint-order:normal"
       d="m 447.81353,856.97479 c -0.14854,-0.0205 -0.59417,-0.08 -0.99028,-0.13216 -9.04856,-1.19107 -16.74694,-8.10941 -18.97661,-17.05381 -0.52657,-2.11232 -0.64491,-3.13659 -0.64491,-5.58156 0,-1.63904 0.0397,-2.42139 0.16459,-3.24091 0.19552,-1.28332 0.74498,-3.49419 1.11883,-4.50194 2.62387,-7.07281 8.3382,-12.33578 15.53541,-14.30832 2.2213,-0.60879 3.99976,-0.80889 6.62876,-0.74582 1.98895,0.0477 3.16011,0.1964 4.86136,0.61716 6.93428,1.71499 12.82648,6.76582 15.56279,13.34052 1.21362,2.91601 1.74805,5.61846 1.74805,8.83931 0,2.6769 -0.30733,4.64533 -1.1109,7.1153 -2.38915,7.34367 -8.46511,13.06491 -15.92495,14.99526 -1.99238,0.51556 -2.99484,0.63831 -5.45144,0.66755 -1.23784,0.0147 -2.37216,0.01 -2.5207,-0.0106 z"
       id="path4714"
       inkscape:connector-curvature="0"
       transform="translate(52.624777,-49.245903)" />
    <path
       style="fill:#fafafa;fill-opacity:1;fill-rule:nonzero;stroke:none;stroke-width:0.48118988;stroke-linecap:butt;stroke-linejoin:round;stroke-miterlimit:4;stroke-dasharray:none;stroke-dashoffset:0;stroke-opacity:1;paint-order:normal"
       d="m 425.2101,269.34688 c -3.77755,-0.68466 -6.4531,-4.07143 -6.25594,-7.91889 0.11403,-2.22508 1.25233,-4.34517 3.06802,-5.71419 0.90432,-0.68185 2.28655,-1.24935 3.4424,-1.41332 0.36684,-0.052 7.02499,-0.0656 24.56573,-0.0502 22.55728,0.0199 24.09038,0.0281 24.5081,0.13139 1.63697,0.40469 2.91693,1.12704 3.97944,2.24581 2.77251,2.91933 2.77251,7.50917 0,10.4285 -1.0625,1.11877 -2.34243,1.8411 -3.97944,2.24581 -0.41806,0.10336 -1.94074,0.11097 -24.63541,0.1232 -20.75793,0.0112 -24.26119,1.3e-4 -24.6929,-0.0781 z"
       id="path4716"
       inkscape:connector-curvature="0"
       transform="translate(52.624777,-49.245903)" />
    <rect
       style="fill:#000000;fill-opacity:1;fill-rule:nonzero;stroke:none;stroke-width:6.62235785;stroke-linecap:butt;stroke-linejoin:round;stroke-miterlimit:4;stroke-dasharray:none;stroke-dashoffset:0;stroke-opacity:1;paint-order:normal"
       id="rect4737"
       width="21.82095"
       height="21.82095"
       x="372.62479"
       y="707.58484" />
    <g
       id="g4868"
       transform="translate(-51.134296)">
      <rect
         y="700.31122"
         x="538.54987"
         height="36.132511"
         width="8.0144806"
         id="rect4739"
         style="fill:#000000;fill-opacity:1;fill-rule:nonzero;stroke:none;stroke-width:10.9963789;stroke-linecap:butt;stroke-linejoin:round;stroke-miterlimit:4;stroke-dasharray:none;stroke-dashoffset:0;stroke-opacity:1;paint-order:normal" />
      <rect
         y="700.31122"
         x="559.69739"
         height="36.132511"
         width="8.0144806"
         id="rect4739-2"
         style="fill:#000000;fill-opacity:1;fill-rule:nonzero;stroke:none;stroke-width:10.9963789;stroke-linecap:butt;stroke-linejoin:round;stroke-miterlimit:4;stroke-dasharray:none;stroke-dashoffset:0;stroke-opacity:1;paint-order:normal" />
    </g>
    <g
       id="g4876"
       transform="translate(-116.31252,-3.9611075)">
      <rect
         y="729.40576"
         x="720.39099"
         height="3.2327306"
         width="21.82091"
         id="rect4761"
         style="fill:#000000;fill-opacity:1;fill-rule:nonzero;stroke:none;stroke-width:10.9963789;stroke-linecap:butt;stroke-linejoin:round;stroke-miterlimit:4;stroke-dasharray:none;stroke-dashoffset:0;stroke-opacity:1;paint-order:normal" />
      <path
         inkscape:transform-center-x="-1.3686586e-05"
         transform="matrix(1.7318635,0,0,1.3861564,-350.12614,-282.21729)"
         inkscape:transform-center-y="-1.819796"
         d="m 631.17973,727.03297 -6.61583,0 -6.61582,0 3.30791,-5.72948 3.30791,-5.72947 3.30792,5.72947 z"
         inkscape:randomized="0"
         inkscape:rounded="0"
         inkscape:flatsided="false"
         sodipodi:arg2="1.5707963"
         sodipodi:arg1="0.52359878"
         sodipodi:r2="3.8196487"
         sodipodi:r1="7.6392975"
         sodipodi:cy="723.21332"
         sodipodi:cx="624.5639"
         sodipodi:sides="3"
         id="path4767"
         style="fill:#000000;fill-opacity:1;fill-rule:nonzero;stroke:none;stroke-width:5.16494799;stroke-linecap:butt;stroke-linejoin:round;stroke-miterlimit:4;stroke-dasharray:none;stroke-dashoffset:0;stroke-opacity:1;paint-order:normal"
         sodipodi:type="star" />
    </g>
    <g
       id="g4872"
       transform="translate(-60.857014,0.72020136)">
      <path
         inkscape:transform-center-y="1.8925171e-05"
         transform="matrix(1.4299914,0,0,1.6689615,-166.97184,-488.43881)"
         inkscape:transform-center-x="-1.734706"
         d="m 544.55917,722.55829 -5.2941,3.05655 -5.2941,3.05655 v -6.1131 -6.1131 l 5.2941,3.05655 z"
         inkscape:randomized="0"
         inkscape:rounded="0"
         inkscape:flatsided="false"
         sodipodi:arg2="1.0471976"
         sodipodi:arg1="0"
         sodipodi:r2="3.5294001"
         sodipodi:r1="7.0588002"
         sodipodi:cy="722.55829"
         sodipodi:cx="537.50037"
         sodipodi:sides="3"
         id="path4771"
         style="fill:#000000;fill-opacity:1;fill-rule:nonzero;stroke:none;stroke-width:7.55905533;stroke-linecap:butt;stroke-linejoin:round;stroke-miterlimit:4;stroke-dasharray:none;stroke-dashoffset:0;stroke-opacity:1;paint-order:normal"
         sodipodi:type="star" />
      <path
         inkscape:transform-center-y="1.8925171e-05"
         transform="matrix(1.4299914,0,0,1.6689615,-149.76377,-488.17696)"
         inkscape:transform-center-x="-1.734706"
         d="m 544.55917,722.55829 -5.2941,3.05655 -5.2941,3.05655 v -6.1131 -6.1131 l 5.2941,3.05655 z"
         inkscape:randomized="0"
         inkscape:rounded="0"
         inkscape:flatsided="false"
         sodipodi:arg2="1.0471976"
         sodipodi:arg1="0"
         sodipodi:r2="3.5294001"
         sodipodi:r1="7.0588002"
         sodipodi:cy="722.55829"
         sodipodi:cx="537.50037"
         sodipodi:sides="3"
         id="path4771-2"
         style="fill:#000000;fill-opacity:1;fill-rule:nonzero;stroke:none;stroke-width:7.55905533;stroke-linecap:butt;stroke-linejoin:round;stroke-miterlimit:4;stroke-dasharray:none;stroke-dashoffset:0;stroke-opacity:1;paint-order:normal"
         sodipodi:type="star" />
    </g>
    <g
       id="g4864"
       transform="translate(-36.010068,1.4404027)">
      <path
         inkscape:transform-center-y="-0.36014675"
         transform="matrix(-1.4299914,0,0,-1.6689615,1266.4688,1922.6191)"
         inkscape:transform-center-x="-5.6473552"
         d="m 544.55917,722.55829 -5.2941,3.05655 -5.2941,3.05655 v -6.1131 -6.1131 l 5.2941,3.05655 z"
         inkscape:randomized="0"
         inkscape:rounded="0"
         inkscape:flatsided="false"
         sodipodi:arg2="1.0471976"
         sodipodi:arg1="0"
         sodipodi:r2="3.5294001"
         sodipodi:r1="7.0588002"
         sodipodi:cy="722.55829"
         sodipodi:cx="537.50037"
         sodipodi:sides="3"
         id="path4771-1"
         style="fill:#000000;fill-opacity:1;fill-rule:nonzero;stroke:none;stroke-width:7.55905533;stroke-linecap:butt;stroke-linejoin:round;stroke-miterlimit:4;stroke-dasharray:none;stroke-dashoffset:0;stroke-opacity:1;paint-order:normal"
         sodipodi:type="star" />
      <path
         inkscape:transform-center-y="-0.36014675"
         transform="matrix(-1.4299914,0,0,-1.6689615,1249.5142,1922.8811)"
         inkscape:transform-center-x="-5.6473552"
         d="m 544.55917,722.55829 -5.2941,3.05655 -5.2941,3.05655 v -6.1131 -6.1131 l 5.2941,3.05655 z"
         inkscape:randomized="0"
         inkscape:rounded="0"
         inkscape:flatsided="false"
         sodipodi:arg2="1.0471976"
         sodipodi:arg1="0"
         sodipodi:r2="3.5294001"
         sodipodi:r1="7.0588002"
         sodipodi:cy="722.55829"
         sodipodi:cx="537.50037"
         sodipodi:sides="3"
         id="path4771-1-3"
         style="fill:#000000;fill-opacity:1;fill-rule:nonzero;stroke:none;stroke-width:7.55905533;stroke-linecap:butt;stroke-linejoin:round;stroke-miterlimit:4;stroke-dasharray:none;stroke-dashoffset:0;stroke-opacity:1;paint-order:normal"
         sodipodi:type="star" />
    </g>
  </g>
</svg>
