<?xml version="1.0" encoding="UTF-8" standalone="no"?>
<!-- Created with Inkscape (http://www.inkscape.org/) -->

<svg
   xmlns:dc="http://purl.org/dc/elements/1.1/"
   xmlns:cc="http://creativecommons.org/ns#"
   xmlns:rdf="http://www.w3.org/1999/02/22-rdf-syntax-ns#"
   xmlns:svg="http://www.w3.org/2000/svg"
   xmlns="http://www.w3.org/2000/svg"
   xmlns:xlink="http://www.w3.org/1999/xlink"
   xmlns:sodipodi="http://sodipodi.sourceforge.net/DTD/sodipodi-0.dtd"
   xmlns:inkscape="http://www.inkscape.org/namespaces/inkscape"
   width="900"
   height="900"
   id="svg3916"
   version="1.1"
   inkscape:version="0.92.2 (5c3e80d, 2017-08-06)"
   sodipodi:docname="icon.svg"
   inkscape:export-filename="C:\Users\Jonny\repos\flutter\vlc_remote\assets\icon-512.png"
   inkscape:export-xdpi="54.613335"
   inkscape:export-ydpi="54.613335">
  <defs
     id="defs3918">
    <linearGradient
       id="linearGradient1526">
      <stop
         id="stop1522"
         offset="0"
         style="stop-color:#ff8800;stop-opacity:1" />
      <stop
         id="stop1524"
         offset="1"
         style="stop-color:#f46e00;stop-opacity:1" />
    </linearGradient>
    <linearGradient
       id="linearGradient1503">
      <stop
         id="stop1499"
         offset="0"
         style="stop-color:#ff8800;stop-opacity:1" />
      <stop
         id="stop1501"
         offset="1"
         style="stop-color:#f46e00;stop-opacity:1" />
    </linearGradient>
    <inkscape:perspective
       sodipodi:type="inkscape:persp3d"
       inkscape:vp_x="0 : 526.18109 : 1"
       inkscape:vp_y="0 : 1000 : 0"
       inkscape:vp_z="744.09448 : 526.18109 : 1"
       inkscape:persp3d-origin="372.04724 : 350.78739 : 1"
       id="perspective3924" />
    <inkscape:perspective
       id="perspective3852"
       inkscape:persp3d-origin="0.5 : 0.33333333 : 1"
       inkscape:vp_z="1 : 0.5 : 1"
       inkscape:vp_y="0 : 1000 : 0"
       inkscape:vp_x="0 : 0.5 : 1"
       sodipodi:type="inkscape:persp3d" />
    <linearGradient
       inkscape:collect="always"
       xlink:href="#linearGradient3649"
       id="linearGradient3826"
       gradientUnits="userSpaceOnUse"
       gradientTransform="matrix(1,0,0,1.0202334,0,-1.4234613)"
       x1="40.775471"
       y1="100.34167"
       x2="44.375881"
       y2="125.31633" />
    <linearGradient
       id="linearGradient3649">
      <stop
         style="stop-color:#e26400;stop-opacity:1;"
         offset="0"
         id="stop3651" />
      <stop
         style="stop-color:#ffb900;stop-opacity:1;"
         offset="1"
         id="stop3653" />
    </linearGradient>
    <linearGradient
       inkscape:collect="always"
       xlink:href="#linearGradient3668"
       id="linearGradient3828"
       gradientUnits="userSpaceOnUse"
       x1="64.751183"
       y1="102.28447"
       x2="93.522026"
       y2="108.98846" />
    <linearGradient
       id="linearGradient3668">
      <stop
         id="stop3670"
         offset="0"
         style="stop-color:#9b4400;stop-opacity:1;" />
      <stop
         id="stop3672"
         offset="1"
         style="stop-color:#e56300;stop-opacity:1;" />
    </linearGradient>
    <linearGradient
       inkscape:collect="always"
       xlink:href="#linearGradient3646"
       id="linearGradient3830"
       gradientUnits="userSpaceOnUse"
       x1="115.20164"
       y1="70.105232"
       x2="261.62219"
       y2="55.356419" />
    <linearGradient
       id="linearGradient3646">
      <stop
         style="stop-color:#f48200;stop-opacity:0;"
         offset="0"
         id="stop3648" />
      <stop
         id="stop3654"
         offset="0.58887613"
         style="stop-color:#f48200;stop-opacity:0.72784811;" />
      <stop
         style="stop-color:#cc5f00;stop-opacity:1;"
         offset="0.81621653"
         id="stop3658" />
      <stop
         style="stop-color:#a43d00;stop-opacity:1;"
         offset="1"
         id="stop3650" />
    </linearGradient>
    <linearGradient
       inkscape:collect="always"
       xlink:href="#linearGradient3626"
       id="linearGradient3832"
       gradientUnits="userSpaceOnUse"
       x1="44.103722"
       y1="228.59993"
       x2="278.4324"
       y2="290.6998" />
    <linearGradient
       id="linearGradient3626">
      <stop
         id="stop3628"
         offset="0"
         style="stop-color:#a1abb2;stop-opacity:1;" />
      <stop
         style="stop-color:#eaeced;stop-opacity:1;"
         offset="0.08297831"
         id="stop3630" />
      <stop
         id="stop3632"
         offset="1"
         style="stop-color:#c6ccd0;stop-opacity:1;" />
    </linearGradient>
    <linearGradient
       inkscape:collect="always"
       xlink:href="#linearGradient3702"
       id="linearGradient3834"
       gradientUnits="userSpaceOnUse"
       x1="18.875"
       y1="252.48438"
       x2="334.03125"
       y2="268.41544" />
    <linearGradient
       id="linearGradient3702">
      <stop
         style="stop-color:#7a8288;stop-opacity:1;"
         offset="0"
         id="stop3704" />
      <stop
         id="stop3710"
         offset="0.5288403"
         style="stop-color:#9fa3a7;stop-opacity:1;" />
      <stop
         style="stop-color:#7d858b;stop-opacity:1;"
         offset="1"
         id="stop3706" />
    </linearGradient>
    <linearGradient
       inkscape:collect="always"
       xlink:href="#linearGradient3712"
       id="linearGradient3836"
       gradientUnits="userSpaceOnUse"
       x1="104.88638"
       y1="12.640625"
       x2="164.75943"
       y2="27.389442" />
    <linearGradient
       id="linearGradient3712">
      <stop
         style="stop-color:#a1abb2;stop-opacity:1;"
         offset="0"
         id="stop3714" />
      <stop
         id="stop3720"
         offset="0.14824273"
         style="stop-color:#eaeced;stop-opacity:1;" />
      <stop
         style="stop-color:#c6ccd0;stop-opacity:1;"
         offset="1"
         id="stop3716" />
    </linearGradient>
    <linearGradient
       inkscape:collect="always"
       xlink:href="#linearGradient3634"
       id="linearGradient3838"
       gradientUnits="userSpaceOnUse"
       gradientTransform="matrix(0.28222223,0,0,0.28222223,-0.13983991,-0.01181449)"
       x1="107.20918"
       y1="-0.64152896"
       x2="151.34604"
       y2="12.703197" />
    <linearGradient
       id="linearGradient3634">
      <stop
         id="stop3636"
         offset="0"
         style="stop-color:#7a8288;stop-opacity:1;" />
      <stop
         style="stop-color:#9fa3a7;stop-opacity:1;"
         offset="0.07633271"
         id="stop3638" />
      <stop
         id="stop3640"
         offset="1"
         style="stop-color:#7d858b;stop-opacity:1;" />
    </linearGradient>
    <linearGradient
       inkscape:collect="always"
       xlink:href="#linearGradient3675"
       id="linearGradient3840"
       gradientUnits="userSpaceOnUse"
       x1="-113.89329"
       y1="461.92139"
       x2="412.23013"
       y2="463.26218" />
    <linearGradient
       id="linearGradient3675">
      <stop
         style="stop-color:#ffb900;stop-opacity:1;"
         offset="0"
         id="stop3677" />
      <stop
         style="stop-color:#ffd76b;stop-opacity:1;"
         offset="1"
         id="stop3679" />
    </linearGradient>
    <linearGradient
       id="linearGradient3689">
      <stop
         style="stop-color:#f68000;stop-opacity:1;"
         offset="0"
         id="stop3691" />
      <stop
         style="stop-color:#fd9800;stop-opacity:1;"
         offset="1"
         id="stop3693" />
    </linearGradient>
    <linearGradient
       inkscape:collect="always"
       xlink:href="#linearGradient1526"
       id="linearGradient4957"
       x1="146.68591"
       y1="106.42471"
       x2="416.63025"
       y2="106.42471"
       gradientUnits="userSpaceOnUse"
       gradientTransform="matrix(0.87657343,0,0,0.81890513,255.73891,0.26710181)" />
    <linearGradient
       inkscape:collect="always"
       xlink:href="#linearGradient1526"
       id="linearGradient4965"
       x1="96.066322"
       y1="39.014259"
       x2="467.23129"
       y2="39.014259"
       gradientUnits="userSpaceOnUse"
       gradientTransform="matrix(0.87657343,0,0,0.81890513,255.73891,0.26710181)" />
    <clipPath
       clipPathUnits="userSpaceOnUse"
       id="clipPath4813">
      <path
         id="path4815"
         d="m 256,24 c -10,0 -16.56131,4.44436 -22,10 -7.51989,7.68159 -14,30 -14,30 l -84,252 h -34 c -10.63636,0 -20.71454,9.30699 -24,20 L 43,456 c -4.67669,16.03434 -3,31.99999 19,32 h 194 194 c 22,-10e-6 23.67669,-15.96566 19,-32 L 434,336 c -3.28546,-10.69301 -13.36364,-20 -24,-20 H 376 L 292,64 c 0,0 -6.48011,-22.31841 -14,-30 -5.43869,-5.55564 -12,-10 -22,-10 z"
         style="fill:#ff8800"
         inkscape:connector-curvature="0" />
    </clipPath>
    <linearGradient
       inkscape:collect="always"
       xlink:href="#linearGradient1526"
       id="linearGradient1536"
       x1="429.07596"
       y1="166.5961"
       x2="576.18451"
       y2="166.5961"
       gradientUnits="userSpaceOnUse" />
  </defs>
  <sodipodi:namedview
     id="base"
     pagecolor="#ffffff"
     bordercolor="#666666"
     borderopacity="1.0"
     inkscape:pageopacity="0.0"
     inkscape:pageshadow="2"
     inkscape:zoom="0.69425029"
     inkscape:cx="105.93456"
     inkscape:cy="385"
     inkscape:document-units="px"
     inkscape:current-layer="layer1"
     showgrid="true"
     inkscape:window-width="1920"
     inkscape:window-height="1017"
     inkscape:window-x="1912"
     inkscape:window-y="-8"
     inkscape:window-maximized="1"
     inkscape:pagecheckerboard="false">
    <inkscape:grid
       type="xygrid"
       id="grid1538" />
  </sodipodi:namedview>
  <metadata
     id="metadata3921">
    <rdf:RDF>
      <cc:Work
         rdf:about="">
        <dc:format>image/svg+xml</dc:format>
        <dc:type
           rdf:resource="http://purl.org/dc/dcmitype/StillImage" />
        <dc:title />
      </cc:Work>
    </rdf:RDF>
  </metadata>
  <g
     inkscape:label="Ebene 1"
     inkscape:groupmode="layer"
     id="layer1"
     transform="translate(-52.624777,49.245903)">
    <g
       id="g1549"
       transform="matrix(1.0829306,0,0,1.0829306,-41.682979,-32.200807)">
      <path
         inkscape:connector-curvature="0"
         sodipodi:nodetypes="cssssssss"
         id="path3692"
         d="m 484.01807,207.6401 c 4.27219,0.80075 7.89087,6.38057 7.44653,10.70439 -15.71377,152.91634 -34.19472,319.18277 -48.86799,466.80422 0,0 -1.63478,10.2407 -5.58492,12.56601 -16.6429,9.79716 -40.42225,3.48737 -57.71078,-5.11947 -11.79892,-5.87394 -22.71454,-16.70437 -26.52833,-29.3207 -3.94878,-13.0629 2.67638,-27.26747 6.05033,-40.4905 34.42831,-134.93019 79.84332,-283.4776 113.0945,-406.99931 1.26383,-4.69497 7.32174,-9.04036 12.10066,-8.14464 z"
         style="opacity:0.10638296;fill:#ffffff;fill-opacity:1;fill-rule:evenodd;stroke:none;stroke-width:0.79486269" />
      <path
         d="m 504.71467,118.76219 a 111.72066,104.37074 0 0 0 -75.6387,25.79391 l 21.41099,22.85737 a 79.205915,73.995091 0 0 1 104.28143,0 l 21.41613,-22.85737 a 111.72066,104.37074 0 0 0 -71.46985,-25.79391 z m 16.79358,82.79099 c -0.30585,0.0162 -0.61166,0.0325 -0.91767,0.0416 -0.67944,0.44644 -0.75112,0.72613 0.71393,0.15195 z m -12.12993,11.55104 c -0.47267,0.24 -0.9852,0.49039 -1.39876,0.67336 -0.20719,0.16589 -0.41707,0.32789 -0.62661,0.49102 -0.0179,0.20752 0.19253,0.25299 0.75844,0.0416 z"
         style="fill:url(#linearGradient1536);fill-opacity:1;stroke-width:5.23783398"
         id="path4589"
         inkscape:connector-curvature="0" />
      <path
         id="path4591"
         d="m 384.31988,96.7441 21.42722,22.85261 a 147.19425,137.51058 0 0 1 193.78245,0.0102 l 21.41638,-22.857684 a 179.71441,167.8913 0 0 0 -236.62605,-0.0049 z"
         data-name="layer1"
         inkscape:connector-curvature="0"
         style="fill:url(#linearGradient4957);fill-opacity:1;stroke-width:5.23783398" />
      <path
         id="path4593"
         d="M 502.63019,-7.7532118 A 246.9278,230.68283 0 0 0 339.94809,49.327703 l 21.41096,22.857679 a 214.61357,200.4945 0 0 1 282.53145,-0.0051 L 665.30145,49.317577 A 246.93322,230.6879 0 0 0 502.63019,-7.7532118 Z"
         data-name="layer1"
         inkscape:connector-curvature="0"
         style="fill:url(#linearGradient4965);fill-opacity:1;stroke-width:5.23783398" />
      <g
         clip-path="url(#clipPath4813)"
         id="g4807"
         transform="matrix(1.3427627,0,0,1.3427627,158.87753,152.08364)">
        <path
           inkscape:connector-curvature="0"
           style="fill:#ff8800"
           d="m 256,24 c -10,0 -16.56131,4.444363 -22,10 -7.51989,7.681589 -14,30 -14,30 l -84,252 h -34 c -10.63636,0 -20.71454,9.30699 -24,20 L 43,456 c -4.67669,16.03434 -3,31.99999 19,32 h 194 194 c 22,-10e-6 23.67669,-15.96566 19,-32 L 434,336 c -3.28546,-10.69301 -13.36364,-20 -24,-20 H 376 L 292,64 c 0,0 -6.48011,-22.318411 -14,-30 -5.43869,-5.555637 -12,-10 -22,-10 z"
           id="path4795" />
        <path
           style="fill:#f46e00;fill-opacity:1"
           d="m 376,316 c 0,0 5.33596,15.99774 8,24 3.86569,11.61172 5.72158,17.44905 -0.0566,24.10156 C 352.00038,395.99957 301.0881,408.013 256,408 210.88287,407.987 160.2209,395.52936 128,364 L 244,480 H 43.53125 c 2.987307,4.87249 8.73663,8 18.46875,8 h 194 194 c 22,-10e-6 23.67669,-15.96566 19,-32 L 434,336 c -3.28546,-10.69301 -13.36364,-20 -24,-20 z"
           id="path4790"
           inkscape:connector-curvature="0" />
        <path
           style="fill:#fafafa"
           d="m 184,172 c 24,18 46.36799,27 72,27 25.63201,0 48,-9 72,-27 48,0 32,-108 -28,-84 -33.16814,17.49548 -55.99922,15.99974 -88,0 -60,-24 -76,84 -28,84 z m -48,144 c 0,0 -5.33263,16.0004 -8,24 -4.00162,12.00101 -6.03383,18.09576 0,24 32.2209,31.52936 82.88287,43.98701 128,44 45.0881,0.013 96,-12 127.94294,-43.89801 C 389.7212,357.44948 387.86569,351.61172 384,340 c -2.66404,-8.00226 -8,-24 -8,-24 28,0 0,-68 -16,-48 -32,32 -66.85763,40 -104,40 -37.14237,0 -72,-8 -104,-40 -16,-16 -44,48 -16,48 z"
           inkscape:connector-curvature="0"
           sodipodi:nodetypes="cacccccssacsccacc"
           id="path3151-2-6-0" />
        <path
           style="opacity:0.6;fill:#ffffff;fill-opacity:0.31372549;fill-rule:evenodd;stroke:none;stroke-width:1px;stroke-linecap:butt;stroke-linejoin:miter;stroke-opacity:1"
           d="m 152,312 c -16.66494,51.58194 52.97315,57.34558 59.63772,19.87924 L 260,60 c 4.46875,-25.122067 -15.31793,-34.873087 -24,-8 z"
           id="path4246"
           inkscape:connector-curvature="0"
           sodipodi:nodetypes="sssss" />
      </g>
    </g>
  </g>
</svg>
